<svg width="128" height="48" viewBox="0 0 128 48" fill="none" xmlns="http://www.w3.org/2000/svg">
<path fill-rule="evenodd" clip-rule="evenodd" d="M24.46 0L0 23.8896L24.46 47.79L34.26 38.2295H24.46L9.79999 23.8896L29.37 4.79004L24.46 0Z" fill="black"/>
<path fill-rule="evenodd" clip-rule="evenodd" d="M53.8408 28.6797H44.0508L63.6208 47.79L73.4408 38.21H63.6208L59.9508 34.6396L61.3208 29.8604H55.0508L53.8408 28.6797Z" fill="black"/>
<path fill-rule="evenodd" clip-rule="evenodd" d="M92.9995 28.6797H83.1895L102.769 47.79L112.579 38.21H102.769L92.9995 28.6797Z" fill="black"/>
<path fill-rule="evenodd" clip-rule="evenodd" d="M44.0409 19.1289H34.2609L39.1609 23.8887L24.4609 38.2285H34.2609L44.0509 28.6787H53.8409L48.9509 23.8887L53.8109 19.1387H44.0509L44.0409 19.1289Z" fill="black"/>
<path fill-rule="evenodd" clip-rule="evenodd" d="M102.769 0L63.6191 38.21H73.4391L83.1891 28.6797H92.9991L88.0792 23.8896L102.769 9.5498H112.549L102.769 0Z" fill="black"/>
<path fill-rule="evenodd" clip-rule="evenodd" d="M112.549 9.55078H102.77L117.43 23.8906L102.77 38.2109H112.58L127.229 23.8906L112.549 9.55078Z" fill="black"/>
<path fill-rule="evenodd" clip-rule="evenodd" d="M72.4408 8.62891L70.7108 14.5889L64.6108 16.249L62.8708 22.2285L56.7608 23.8887L55.0508 29.8594H61.3208L61.6608 28.6787L67.7808 26.999L69.4908 21.0293L75.6108 19.3486L77.3108 13.3994L72.4408 8.62891Z" fill="black"/>
<path fill-rule="evenodd" clip-rule="evenodd" d="M34.2603 9.55078L19.5703 23.8906L24.4603 28.6807L34.2603 19.1309H44.0403L34.2603 9.55078Z" fill="black"/>
<path fill-rule="evenodd" clip-rule="evenodd" d="M63.6208 0L44.0508 19.1299V19.1396H53.8108L68.5208 4.79004L63.6208 0Z" fill="black"/>
</svg>
